<?xml version="1.0" encoding="UTF-8"?>
<svg xmlns="http://www.w3.org/2000/svg" xmlns:xlink="http://www.w3.org/1999/xlink" width="px" height="30px" viewBox="0 0 21 29" version="1.1">
<g id="surface1">
<path style="fill-rule:nonzero;fill:rgb(0%,50.196078%,0%);fill-opacity:1;stroke-width:3.413168;stroke-linecap:butt;stroke-linejoin:miter;stroke:rgb(0%,0%,0%);stroke-opacity:1;stroke-miterlimit:4;" d="M 304.602679 1.700431 C 193.611607 1.700431 103.65625 87.005388 103.65625 192.290409 C 103.65625 270.510237 153.200893 337.677263 224.334821 367.151401 L 154.723214 540.028556 L 1.660714 921.06681 L 3.183036 921.06681 C 2.352679 923.475754 1.9375 925.884698 1.9375 928.293642 C 1.9375 972.504849 137.285714 1008.213901 304.464286 1008.213901 C 471.504464 1008.213901 606.991071 972.504849 606.991071 928.293642 C 606.991071 927.585129 606.991071 927.018319 606.852679 926.309806 L 607.683036 926.309806 L 605.883929 921.775323 C 605.607143 920.641703 605.191964 919.508082 604.638393 918.232759 L 457.665179 542.720905 L 388.46875 365.592672 C 457.665179 335.551724 505.825893 269.234914 505.825893 192.290409 C 505.825893 87.005388 415.732143 1.700431 304.602679 1.700431 Z M 304.602679 1.700431 " transform="matrix(0.0282258,0,0,0.0275665,0,0)"/>
</g>
</svg>
