<?xml version="1.0" encoding="UTF-8"?>
<svg xmlns="http://www.w3.org/2000/svg" xmlns:xlink="http://www.w3.org/1999/xlink" width="14px" height="20px" viewBox="0 0 14 19" version="1.1">
<g id="surface1">
<path style="fill-rule:nonzero;fill:rgb(100%,0%,0%);fill-opacity:1;stroke-width:3.413167;stroke-linecap:butt;stroke-linejoin:miter;stroke:rgb(0%,0%,0%);stroke-opacity:1;stroke-miterlimit:4;" d="M 304.741071 1.730263 C 193.680804 1.730263 103.587054 86.945724 103.587054 192.275493 C 103.587054 270.569901 153.200893 337.617599 224.196429 367.032072 L 154.654018 540.058388 L 1.660714 921.148849 L 3.113839 921.148849 C 2.283482 923.527961 1.868304 925.907072 1.868304 928.286184 C 1.868304 972.407895 137.424107 1008.310855 304.325893 1008.310855 C 471.435268 1008.310855 606.991071 972.407895 606.991071 928.286184 C 606.991071 927.637336 606.991071 926.988487 606.991071 926.339638 L 607.821429 926.339638 L 605.953125 921.797697 C 605.537946 920.716283 605.122768 919.418586 604.707589 918.337171 L 457.734375 542.653783 L 388.607143 365.734375 C 457.734375 335.45477 505.895089 269.272204 505.895089 192.275493 C 505.895089 86.945724 415.801339 1.730263 304.741071 1.730263 Z M 304.741071 1.730263 " transform="matrix(0.0188172,0,0,0.0180608,0,0)"/>
</g>
</svg>
